<svg width="108" height="32" viewBox="0 0 108 32" fill="none" xmlns="http://www.w3.org/2000/svg">
    <path d="M53.3911 11.3916C52.4714 11.3916 51.7248 12.1333 51.7248 13.0283V25.3057C51.7248 26.2254 52.4714 26.9721 53.3911 26.9721C54.3157 26.9721 55.0574 26.2254 55.0574 25.3057V13.0283C55.0574 12.1333 54.3157 11.3916 53.3911 11.3916ZM53.3911 5.27014C52.3527 5.27014 51.5171 6.10084 51.5171 7.13921C51.5171 8.17758 52.3527 9.04289 53.3911 9.04289C54.4344 9.04289 55.2651 8.17758 55.2651 7.13921C55.2651 6.10084 54.4344 5.27014 53.3911 5.27014ZM69.6243 12.9986C69.6243 11.9602 68.7936 11.5696 68.0766 11.5696H59.8438C59.0428 11.5696 58.3852 12.1976 58.3852 12.9986C58.3852 13.7996 59.0428 14.4523 59.8438 14.4523H65.2532L58.2418 24.2031C58.0292 24.4998 57.9154 24.8607 57.9154 25.1871C57.9154 26.1958 58.7461 26.7941 59.4285 26.7941H68.1706C68.9716 26.7941 69.6243 26.1364 69.6243 25.3354C69.6243 24.5344 69.0013 23.8767 68.1706 23.8767H62.2815L69.1496 14.3386C69.5056 13.8639 69.6243 13.4436 69.6243 12.9986ZM45.3462 20.727C45.3462 22.7494 44.4512 23.9954 42.4585 23.9954C40.4362 23.9954 39.5758 22.7494 39.5758 20.727V14.4523H42.6019C45.0396 14.4523 45.3462 15.7923 45.3462 17.2806V20.727ZM48.6443 17.2213C48.6443 13.7699 46.8197 11.5696 42.6267 11.5696H39.5758V6.93153C39.5758 6.00689 38.8341 5.27014 37.9392 5.27014C37.0195 5.27014 36.2778 6.00689 36.2778 6.93153V20.727C36.2778 24.1487 38.1172 26.9721 42.4585 26.9721C46.7703 26.9721 48.6443 24.1487 48.6443 20.727V17.2213ZM82.594 11.3916C81.6743 11.3916 80.9277 12.1333 80.9277 13.0579V20.727C80.9277 22.7494 80.0377 23.9954 78.045 23.9954C76.0226 23.9954 75.1623 22.7494 75.1623 20.727V13.0579C75.1623 12.1333 74.4206 11.3916 73.5256 11.3916C72.6059 11.3916 71.8593 12.1333 71.8593 13.0579L71.8642 20.727C71.8642 24.1487 73.7036 26.9721 78.045 26.9721C82.3517 26.9721 84.2307 24.1487 84.2307 20.727V13.0579C84.2307 12.1333 83.489 11.3916 82.594 11.3916ZM107.821 17.6366C107.821 14.2199 106.239 11.3916 101.898 11.3916C99.9645 11.3916 98.58 11.9652 97.6356 12.8997C96.6911 11.9652 95.3017 11.3916 93.3585 11.3916C89.0468 11.3916 87.4348 14.2199 87.4348 17.6366V25.3057C87.4348 26.2254 88.1765 26.9721 89.0715 26.9721C89.9912 26.9721 90.7329 26.2254 90.7329 25.3057V17.6366C90.7329 15.6143 91.3658 14.3682 93.3585 14.3682C95.3759 14.3682 95.9791 15.6143 95.9791 17.6366V25.3057C95.9791 26.2254 96.7208 26.9721 97.6158 26.9721C98.5355 26.9721 99.2772 26.2254 99.2772 25.3057V17.6366C99.2772 15.6143 99.9101 14.3682 101.898 14.3682C103.92 14.3682 104.523 15.6143 104.523 17.6366V25.3057C104.523 26.2254 105.265 26.9721 106.16 26.9721C107.08 26.9721 107.821 26.2254 107.821 25.3057V17.6366ZM6.04142 11.4114C7.20341 12.2569 8.83019 11.9948 9.67572 10.8328L12.7364 6.62002C13.582 5.45804 13.3248 3.83126 12.1579 2.98573C10.9959 2.13525 9.36915 2.39732 8.52362 3.5593L5.4629 7.77212C4.61737 8.9341 4.87449 10.5609 6.04142 11.4114ZM20.01 5.47287C18.848 4.6224 17.2212 4.88446 16.3757 6.04645L4.1328 22.8977C3.28232 24.0597 3.54439 25.6865 4.70637 26.532C5.86836 27.3775 7.49514 27.1204 8.34067 25.9584L20.5835 9.10222C21.434 7.94024 21.172 6.31346 20.01 5.47287ZM4.88438 4.13288C5.72991 2.97089 5.47279 1.34411 4.31575 0.498582C3.14387 -0.346948 1.51709 -0.0848823 0.676507 1.07216C-0.169023 2.23909 0.0880974 3.86587 1.25008 4.7114C2.41207 5.55693 4.04379 5.29981 4.88438 4.13288ZM23.4663 27.2885C22.3043 26.443 20.6726 26.7051 19.832 27.8621C18.9864 29.029 19.2436 30.6558 20.4055 31.5014C21.5675 32.3469 23.1993 32.0898 24.0448 30.9228C24.8854 29.7608 24.6282 28.1341 23.4663 27.2885ZM18.6749 20.5886C17.5129 19.748 15.8862 20.0051 15.0406 21.1671L11.9799 25.3799C11.1344 26.5419 11.3915 28.1687 12.5535 29.0192C13.7204 29.8647 15.3472 29.6026 16.1927 28.4406L19.2534 24.2278C20.099 23.0658 19.8419 21.439 18.6749 20.5886Z" fill="#302E35"/>
</svg>
