<svg width="77" height="21" viewBox="0 0 77 21" fill="none" xmlns="http://www.w3.org/2000/svg">
    <g clip-path="url(#clip0_0_1)">
        <path d="M24.6133 1H1.38667C0.620832 1 0 1.64638 0 2.44374V16.5563C0 17.3536 0.620832 18 1.38667 18H24.6133C25.3792 18 26 17.3536 26 16.5563V2.44374C26 1.64638 25.3792 1 24.6133 1Z" fill="#0E4595"/>
        <path fill-rule="evenodd" clip-rule="evenodd" d="M9.64417 13.0638L10.8007 5.99805H12.6505L11.4931 13.0638H9.64417Z" fill="white"/>
        <path fill-rule="evenodd" clip-rule="evenodd" d="M18.176 6.15028C17.8095 6.00713 17.2353 5.85352 16.5181 5.85352C14.6903 5.85352 13.4028 6.81183 13.3919 8.1853C13.3816 9.20057 14.311 9.76694 15.0127 10.1049C15.7327 10.4512 15.9747 10.6721 15.9713 10.9814C15.9667 11.455 15.3963 11.6714 14.8646 11.6714C14.1243 11.6714 13.7309 11.5643 13.1235 11.3005L12.8851 11.1882L12.6255 12.7699C13.0575 12.9671 13.8565 13.138 14.686 13.1469C16.6304 13.1469 17.8927 12.1995 17.9071 10.7329C17.914 9.92911 17.4212 9.3174 16.354 8.81314C15.7075 8.48628 15.3115 8.26817 15.3157 7.93719C15.3157 7.6435 15.6508 7.32945 16.375 7.32945C16.9799 7.31967 17.418 7.457 17.7594 7.60015L17.9252 7.68168L18.176 6.15028Z" fill="white"/>
        <path fill-rule="evenodd" clip-rule="evenodd" d="M22.936 5.99805H21.5067C21.0639 5.99805 20.7325 6.12387 20.5381 6.58399L17.7909 13.0593H19.7333C19.7333 13.0593 20.0509 12.1886 20.1227 11.9975C20.335 11.9975 22.222 12.0005 22.4917 12.0005C22.5471 12.2478 22.7168 13.0593 22.7168 13.0593H24.4332L22.936 5.99805ZM20.6682 10.5605C20.8212 10.1534 21.4052 8.58537 21.4052 8.58537C21.3943 8.60417 21.557 8.17628 21.6505 7.911L21.7755 8.52018C21.7755 8.52018 22.1297 10.2068 22.2037 10.5605H20.6682V10.5605Z" fill="white"/>
        <path fill-rule="evenodd" clip-rule="evenodd" d="M8.07395 5.99805L6.26297 10.8163L6.07001 9.83716C5.73288 8.70837 4.68248 7.48546 3.50818 6.8732L5.1641 13.0525L7.12121 13.0502L10.0333 5.99805H8.07395Z" fill="white"/>
        <path fill-rule="evenodd" clip-rule="evenodd" d="M4.57326 5.99805H1.5905L1.56689 6.14506C3.88745 6.72991 5.42294 8.1433 6.06032 9.84153L5.41174 6.59456C5.29977 6.14715 4.97501 6.01364 4.57326 5.99805Z" fill="#F2AE14"/>
    </g>
    <g clip-path="url(#clip1_0_1)">
        <path d="M52.72 0H31.28C30.5731 0 30 0.722428 30 1.61359V17.3864C30 18.2776 30.5731 19 31.28 19H52.72C53.4269 19 54 18.2776 54 17.3864V1.61359C54 0.722428 53.4269 0 52.72 0Z" fill="black"/>
        <path fill-rule="evenodd" clip-rule="evenodd" d="M51.6 9.50108C51.6 13.5001 49.0288 16.7419 45.8565 16.7419C42.6846 16.7419 40.1132 13.5001 40.1132 9.50108C40.1132 5.50173 42.6846 2.25977 45.8565 2.25977C49.0288 2.25977 51.6 5.50173 51.6 9.50108Z" fill="#D9222A"/>
        <path fill-rule="evenodd" clip-rule="evenodd" d="M41.4199 14.0991C41.2612 13.8566 41.1151 13.6006 40.9823 13.3323H43.0179C43.14 13.0864 43.2503 12.8304 43.3488 12.5654H40.6515C40.5596 12.3173 40.4779 12.0615 40.4084 11.7989H43.5916C43.7832 11.0767 43.887 10.3043 43.887 9.50108C43.887 8.97481 43.8424 8.46183 43.758 7.96767H40.2424C40.287 7.7063 40.343 7.45065 40.4091 7.20088H43.5912C43.5214 6.93833 43.4402 6.68251 43.3483 6.43425H40.6522C40.7506 6.16952 40.8611 5.9137 40.983 5.66746H43.0172C42.8846 5.40004 42.738 5.14405 42.5798 4.90134H41.4206C41.5988 4.62838 41.7927 4.37222 42.0002 4.13489C40.9808 2.96974 39.6278 2.25977 38.1436 2.25977C34.9715 2.25977 32.4 5.50173 32.4 9.50108C32.4 13.5001 34.9715 16.7419 38.1436 16.7419C39.628 16.7419 40.981 16.0321 42.0002 14.8671C42.208 14.6294 42.402 14.3726 42.5804 14.0991H41.4199Z" fill="#0097D0"/>
        <path fill-rule="evenodd" clip-rule="evenodd" d="M50.8344 13.5365C50.8344 13.4074 50.9174 13.3027 51.02 13.3027C51.1224 13.3027 51.2053 13.4074 51.2053 13.5365C51.2053 13.6658 51.1224 13.7705 51.02 13.7705C50.9174 13.7705 50.8344 13.6658 50.8344 13.5365ZM51.02 13.7144C51.0978 13.7144 51.1609 13.635 51.1609 13.5365C51.1609 13.4384 51.0978 13.3592 51.02 13.3592C50.9421 13.3592 50.8789 13.4384 50.8789 13.5365C50.8789 13.635 50.9421 13.7144 51.02 13.7144ZM50.9948 13.6392H50.9569V13.4338H51.0257C51.04 13.4338 51.0546 13.434 51.0673 13.4443C51.0806 13.4557 51.088 13.4755 51.088 13.4955C51.088 13.5191 51.0772 13.5404 51.0598 13.5486L51.0897 13.6392H51.0475L51.0228 13.5582H50.9948V13.6392ZM50.9948 13.5231H51.0158C51.0237 13.5231 51.0319 13.5238 51.039 13.5191C51.0453 13.5138 51.0486 13.5043 51.0486 13.4952C51.0486 13.4876 51.0446 13.4784 51.0394 13.4745C51.0326 13.4695 51.0221 13.4705 51.015 13.4705H50.9948V13.5231Z" fill="black"/>
        <path fill-rule="evenodd" clip-rule="evenodd" d="M41.9182 11.4573C41.6728 11.5393 41.4354 11.5793 41.1845 11.5787C40.384 11.5776 39.967 11.1181 39.967 10.2394C39.967 9.21239 40.4978 8.45703 41.2182 8.45703C41.8076 8.45703 42.1838 8.8806 42.1838 9.54402C42.1838 9.76421 42.1584 9.97851 42.096 10.2821H40.6724C40.6217 10.711 40.8704 10.8994 41.2936 10.8994C41.5472 10.8994 41.7765 10.8419 42.0304 10.7134L41.9182 11.4573ZM41.5354 9.6763C41.5354 9.61142 41.6146 9.15054 41.2026 9.14045C40.9752 9.14045 40.812 9.33106 40.746 9.6763H41.5354Z" fill="black"/>
        <path fill-rule="evenodd" clip-rule="evenodd" d="M42.4005 9.47477C42.4005 9.85413 42.5699 10.1162 42.955 10.3113C43.2494 10.4634 43.2958 10.5073 43.2958 10.6429C43.2958 10.831 43.1657 10.9174 42.8769 10.9151C42.6599 10.913 42.4621 10.8799 42.2285 10.7982L42.1251 11.4902C42.3327 11.5509 42.6239 11.5709 42.8819 11.5785C43.6507 11.5785 44.0057 11.2611 44.0057 10.5754C44.0057 10.1632 43.8577 9.92052 43.4926 9.73983C43.1874 9.58621 43.1515 9.55276 43.1515 9.41375C43.1515 9.25038 43.2725 9.16768 43.5083 9.16768C43.6511 9.16768 43.8469 9.18432 44.0325 9.21239L44.1367 8.51687C43.9475 8.48359 43.6605 8.45703 43.4943 8.45703C42.6799 8.45703 42.3981 8.91926 42.4005 9.47477Z" fill="black"/>
        <path fill-rule="evenodd" clip-rule="evenodd" d="M39.5767 11.5291H38.9795L38.9938 11.2136C38.8116 11.4625 38.5691 11.5783 38.2399 11.5783C37.8503 11.5783 37.5834 11.2425 37.5834 10.7596C37.5834 10.0256 38.0474 9.60217 38.8451 9.60217C38.9271 9.60217 39.0314 9.60991 39.1384 9.62487C39.1606 9.52671 39.1666 9.48452 39.1666 9.4309C39.1666 9.23004 39.0411 9.15608 38.7054 9.15608C38.3744 9.15777 38.1511 9.21945 37.9439 9.28971L38.0459 8.61604C38.4042 8.50124 38.6388 8.45703 38.9043 8.45703C39.522 8.45703 39.8483 8.76227 39.8483 9.33627C39.8536 9.48939 39.8112 9.79665 39.79 9.93111C39.7658 10.1269 39.5946 11.2613 39.5767 11.5291ZM39.0526 10.1901C38.9768 10.1804 38.9439 10.1775 38.8922 10.1775C38.4848 10.1775 38.2783 10.3303 38.2783 10.632C38.2783 10.8213 38.3791 10.9399 38.5362 10.9399C38.8288 10.9399 39.0402 10.6313 39.0526 10.1901Z" fill="black"/>
        <path fill-rule="evenodd" clip-rule="evenodd" d="M45.2641 11.4804C45.0681 11.5481 44.9154 11.5776 44.7502 11.5776C44.3843 11.5776 44.1846 11.3419 44.1846 10.922C44.1731 10.8067 44.2625 10.2743 44.2827 10.1258C44.303 9.97692 44.6199 7.80664 44.6199 7.80664H45.3307L45.2231 8.52469H45.5877L45.4886 9.25769H45.1225C45.1225 9.25769 44.9215 10.5296 44.9215 10.6266C44.9215 10.7809 44.9957 10.8479 45.1658 10.8479C45.2473 10.8479 45.3101 10.8383 45.3587 10.82L45.2641 11.4804Z" fill="black"/>
        <path fill-rule="evenodd" clip-rule="evenodd" d="M48.4401 8.45616C47.9191 8.45616 47.5121 8.72644 47.2757 9.1779L47.4809 8.50843C47.1027 8.33346 46.859 8.58306 46.6385 8.93805C46.6385 8.93805 46.6015 8.99705 46.5649 9.051V8.52457H45.8974C45.807 9.45356 45.6471 10.3955 45.5221 11.326L45.4919 11.5285H46.2099C46.2779 11.0562 46.3339 10.6728 46.3897 10.3673C46.5422 9.52869 46.7989 9.27237 47.1842 9.38565C47.0953 9.62685 47.0465 9.9057 47.0465 10.2148C47.0465 10.9643 47.3694 11.5778 48.1713 11.5778C48.9805 11.5778 49.5663 11.0329 49.5663 9.79039C49.5663 9.04092 49.1759 8.45616 48.4401 8.45616ZM48.2311 10.849C47.9775 10.854 47.8238 10.5858 47.8238 10.1845C47.8238 9.70887 48.0482 9.17152 48.4086 9.17152C48.6994 9.17152 48.799 9.46213 48.799 9.77174C48.799 10.4486 48.579 10.849 48.2311 10.849Z" fill="black"/>
        <path fill-rule="evenodd" clip-rule="evenodd" d="M37.2489 11.5282H36.534L36.9589 8.70624L35.9806 11.5282H35.3289L35.2097 8.72254L34.7834 11.5282H34.1348L34.6873 7.85742H35.8045L35.8977 9.90365L36.6054 7.85742H37.8125L37.2489 11.5282Z" fill="black"/>
        <path fill-rule="evenodd" clip-rule="evenodd" d="M49.6208 11.0678C49.6208 10.9389 49.7039 10.834 49.8063 10.834C49.9088 10.834 49.9918 10.9389 49.9918 11.0678C49.9918 11.1972 49.9088 11.3019 49.8063 11.3019C49.7039 11.3019 49.6208 11.1972 49.6208 11.0678ZM49.8063 11.2458C49.8842 11.2458 49.9474 11.1659 49.9474 11.0678C49.9474 10.9696 49.8842 10.8901 49.8063 10.8901C49.7284 10.8901 49.6652 10.9696 49.6652 11.0678C49.6652 11.1659 49.7284 11.2458 49.8063 11.2458ZM49.7812 11.1705H49.7432V10.9654H49.812C49.8264 10.9654 49.8411 10.9654 49.8538 10.9755C49.8668 10.9868 49.8744 11.0064 49.8744 11.0268C49.8744 11.0501 49.8636 11.0718 49.8462 11.0799L49.876 11.1705H49.8339L49.8092 11.0895H49.7812V11.1705ZM49.7812 11.054H49.8023C49.81 11.054 49.8184 11.0547 49.8255 11.0501C49.8318 11.0448 49.835 11.0357 49.835 11.0264C49.835 11.0185 49.8311 11.0096 49.8259 11.0058C49.8191 11.0006 49.8086 11.0019 49.8015 11.0019H49.7812V11.054Z" fill="white"/>
        <path fill-rule="evenodd" clip-rule="evenodd" d="M42.0977 11.2307C41.8523 11.3128 41.6149 11.3529 41.3641 11.3523C40.5635 11.3512 40.1466 10.8915 40.1466 10.0126C40.1466 8.986 40.6771 8.23047 41.3977 8.23047C41.9871 8.23047 42.3633 8.65387 42.3633 9.31729C42.3633 9.53781 42.3377 9.75178 42.2755 10.0555H40.8519C40.8013 10.4843 41.0497 10.673 41.473 10.673C41.7266 10.673 41.9558 10.6156 42.2099 10.4868L42.0977 11.2307ZM41.7149 9.44974C41.7149 9.38502 41.7939 8.92398 41.3821 8.91406C41.1546 8.91406 40.9915 9.10483 40.9254 9.44974H41.7149Z" fill="white"/>
        <path fill-rule="evenodd" clip-rule="evenodd" d="M42.5802 9.24804C42.5802 9.62757 42.7494 9.88944 43.1346 10.0849C43.4291 10.2369 43.4754 10.2809 43.4754 10.4162C43.4754 10.6045 43.3452 10.6909 43.0566 10.6885C42.8395 10.6867 42.6416 10.6534 42.4082 10.5717L42.3046 11.2633C42.5123 11.3245 42.8036 11.3445 43.0615 11.3521C43.8303 11.3521 44.1854 11.0346 44.1854 10.3488C44.1854 9.93667 44.0372 9.69379 43.672 9.51327C43.3668 9.35964 43.3311 9.3262 43.3311 9.18719C43.3311 9.02382 43.4522 8.94112 43.6878 8.94112C43.8308 8.94112 44.0264 8.95793 44.2122 8.986L44.3162 8.29031C44.127 8.25703 43.84 8.23047 43.674 8.23047C42.8594 8.23047 42.5776 8.69253 42.5802 9.24804Z" fill="white"/>
        <path fill-rule="evenodd" clip-rule="evenodd" d="M39.7564 11.3027H39.1591L39.1735 10.9872C38.9912 11.2356 38.7487 11.3516 38.4196 11.3516C38.03 11.3516 37.7629 11.0158 37.7629 10.5332C37.7629 9.79884 38.2268 9.37561 39.0247 9.37561C39.1067 9.37561 39.2108 9.38334 39.3181 9.3983C39.3403 9.30014 39.3461 9.25812 39.3461 9.20434C39.3461 9.00331 39.2208 8.92952 38.8851 8.92952C38.5541 8.9312 38.3308 8.99306 38.1236 9.06315L38.2255 8.38964C38.5839 8.27467 38.8184 8.23047 39.084 8.23047C39.7017 8.23047 40.0279 8.53571 40.0279 9.10954C40.0332 9.26283 39.9908 9.56992 39.9697 9.70472C39.9453 9.90036 39.7741 11.0348 39.7564 11.3027ZM39.232 9.96356C39.1565 9.95365 39.1235 9.95096 39.0716 9.95096C38.6645 9.95096 38.4579 10.1037 38.4579 10.4055C38.4579 10.5949 38.5588 10.7134 38.7156 10.7134C39.0085 10.7134 39.2199 10.4046 39.232 9.96356Z" fill="white"/>
        <path fill-rule="evenodd" clip-rule="evenodd" d="M45.4435 11.254C45.2476 11.3216 45.0948 11.3512 44.9298 11.3512C44.5639 11.3512 44.3643 11.1153 44.3643 10.6955C44.3527 10.5803 44.4422 10.0477 44.4623 9.89928C44.4826 9.75035 44.7995 7.58008 44.7995 7.58008H45.5102L45.4028 8.29812H45.7674L45.6683 9.03113H45.3022C45.3022 9.03113 45.1011 10.303 45.1011 10.4C45.1011 10.5543 45.1754 10.621 45.3454 10.621C45.4267 10.621 45.4896 10.6118 45.5383 10.5931L45.4435 11.254Z" fill="white"/>
        <path fill-rule="evenodd" clip-rule="evenodd" d="M48.9785 9.54605C48.9785 10.2227 48.7584 10.6235 48.4104 10.6235C48.1569 10.628 48.0032 10.3602 48.0032 9.95886C48.0032 9.48318 48.2274 8.94583 48.5878 8.94583C48.8788 8.94583 48.9785 9.23678 48.9785 9.54605ZM49.7458 9.56487C49.7458 8.81539 49.3552 8.23047 48.6196 8.23047C47.7732 8.23047 47.226 8.94146 47.226 9.98911C47.226 10.7386 47.5486 11.3523 48.3508 11.3523C49.16 11.3523 49.7458 10.8072 49.7458 9.56487Z" fill="white"/>
        <path fill-rule="evenodd" clip-rule="evenodd" d="M46.0766 8.29866C45.9863 9.22765 45.8265 10.1694 45.7015 11.1003L45.6713 11.3028H46.3891C46.6479 9.50532 46.7347 8.99317 47.2769 9.17353L47.5377 8.32286C47.1595 8.14789 46.9161 8.39766 46.6958 8.75282C46.7157 8.59297 46.7531 8.43884 46.7441 8.29866H46.0766Z" fill="white"/>
        <path fill-rule="evenodd" clip-rule="evenodd" d="M37.4285 11.3037H36.7137L37.1385 8.48163L36.1601 11.3037H35.5085L35.3893 8.49793L34.963 11.3037H34.3143L34.8667 7.63281H35.9842L36.0433 9.90528L36.8297 7.63281H37.9921L37.4285 11.3037Z" fill="white"/>
    </g>
    <g clip-path="url(#clip2_0_1)">
        <path d="M79.6667 0H57.3333C56.597 0 56 0.798473 56 1.78344V19.2166C56 20.2015 56.597 21 57.3333 21H79.6667C80.403 21 81 20.2015 81 19.2166V1.78344C81 0.798473 80.403 0 79.6667 0Z" fill="#F4F4F4"/>
        <path fill-rule="evenodd" clip-rule="evenodd" d="M76.6193 18.8203C76.5789 18.8216 76.5456 18.8396 76.5194 18.8742C76.4932 18.9087 76.4797 18.952 76.4788 19.004C76.4797 19.0555 76.4932 19.0987 76.5194 19.1334C76.5456 19.1682 76.5789 19.1862 76.6193 19.1876C76.6588 19.1862 76.6917 19.1682 76.718 19.1334C76.7443 19.0987 76.7579 19.0555 76.7589 19.004C76.7579 18.952 76.7443 18.9087 76.7181 18.8742C76.6919 18.8396 76.659 18.8216 76.6193 18.8203ZM76.6193 19.1471C76.5885 19.1461 76.5631 19.1321 76.5431 19.1052C76.5231 19.0783 76.5128 19.0446 76.5121 19.004C76.5128 18.9632 76.5231 18.9294 76.5431 18.9027C76.5631 18.8761 76.5885 18.8622 76.6193 18.8613C76.6495 18.8622 76.6745 18.8761 76.6944 18.9027C76.7142 18.9294 76.7245 18.9632 76.7253 19.004C76.7245 19.0446 76.7142 19.0783 76.6944 19.1052C76.6745 19.1321 76.6495 19.1461 76.6193 19.1471ZM76.6274 18.918H76.5685V19.0886H76.5958V19.0247H76.6082L76.6469 19.0886H76.6795L76.6378 19.0242C76.6508 19.022 76.6609 19.0164 76.6679 19.0073C76.6749 18.9982 76.6784 18.9866 76.6785 18.9724C76.6784 18.9556 76.674 18.9424 76.6652 18.9327C76.6564 18.9231 76.6438 18.9182 76.6274 18.918ZM76.6271 18.9499C76.6344 18.9499 76.6401 18.9518 76.6443 18.9556C76.6484 18.9594 76.6505 18.965 76.6506 18.9724C76.6505 18.9801 76.6484 18.9858 76.6443 18.9897C76.6401 18.9935 76.6344 18.9954 76.6271 18.9954H76.5958V18.9499H76.6271Z" fill="black"/>
        <path fill-rule="evenodd" clip-rule="evenodd" d="M61.3403 19.07H61.0485V17.2472H61.3346V17.4693C61.3346 17.4693 61.5859 17.1978 61.7351 17.2012C62.0254 17.2078 62.1986 17.5382 62.1986 17.5382C62.1986 17.5382 62.3392 17.2012 62.6564 17.2012C63.1255 17.2012 63.1943 17.7756 63.1943 17.7756V19.0623H62.9139V17.9288C62.9139 17.9288 62.9149 17.5841 62.6107 17.5841C62.296 17.5841 62.2673 17.9288 62.2673 17.9288V19.0623H61.9755V17.9211C61.9755 17.9211 61.9474 17.5612 61.6836 17.5612C61.341 17.5612 61.3346 17.9288 61.3346 17.9288L61.3403 19.07Z" fill="black"/>
        <path fill-rule="evenodd" clip-rule="evenodd" d="M70.2154 17.2012C70.0661 17.1978 69.8149 17.4692 69.8149 17.4692V17.2476H69.5284V19.07H69.8205L69.8149 17.929C69.8149 17.929 69.8213 17.5621 70.1639 17.5621C70.2276 17.5621 70.277 17.5827 70.3161 17.6145V17.613L70.4112 17.2581C70.3538 17.2258 70.2885 17.2029 70.2154 17.2012Z" fill="black"/>
        <path fill-rule="evenodd" clip-rule="evenodd" d="M74.3265 17.2012C74.1772 17.1978 73.9259 17.4692 73.9259 17.4692V17.2476H73.6395V19.07H73.9315L73.9259 17.929C73.9259 17.929 73.9324 17.5621 74.275 17.5621C74.3386 17.5621 74.3881 17.5827 74.4272 17.6145V17.613L74.5223 17.2581C74.4649 17.2258 74.3996 17.2029 74.3265 17.2012Z" fill="black"/>
        <path fill-rule="evenodd" clip-rule="evenodd" d="M64.1379 17.1953C63.7012 17.1953 63.47 17.7207 63.4689 18.1597C63.4677 18.6096 63.732 19.1285 64.1502 19.1285C64.3942 19.1285 64.5947 18.8874 64.5947 18.8874L64.5942 19.0731H64.8814V17.2485H64.5931V17.4783C64.5931 17.4783 64.4049 17.1953 64.1379 17.1953ZM64.1939 17.5667C64.4285 17.5667 64.619 17.8399 64.619 18.1761C64.619 18.5124 64.4285 18.7841 64.1939 18.7841C63.9592 18.7841 63.7698 18.5124 63.7698 18.1761C63.7698 17.8399 63.9592 17.5667 64.1939 17.5667Z" fill="black"/>
        <path fill-rule="evenodd" clip-rule="evenodd" d="M72.5155 17.1953C72.0787 17.1953 71.8476 17.7207 71.8464 18.1597C71.8452 18.6096 72.1096 19.1285 72.5278 19.1285C72.7718 19.1285 72.9722 18.8874 72.9722 18.8874L72.9717 19.0731H73.259V17.2485H72.9707V17.4783C72.9707 17.4783 72.7825 17.1953 72.5155 17.1953ZM72.5714 17.5667C72.8061 17.5667 72.9966 17.8399 72.9966 18.1761C72.9966 18.5124 72.8061 18.7841 72.5714 18.7841C72.3368 18.7841 72.1474 18.5124 72.1474 18.1761C72.1474 17.8399 72.3368 17.5667 72.5714 17.5667Z" fill="black"/>
        <path fill-rule="evenodd" clip-rule="evenodd" d="M75.2736 17.1944C74.8368 17.1944 74.6057 17.7198 74.6045 18.1588C74.6033 18.6087 74.8676 19.1276 75.2859 19.1276C75.5299 19.1276 75.7303 18.8865 75.7303 18.8865L75.7298 19.0722H76.017V16.5273H75.7288V17.4774C75.7288 17.4774 75.5405 17.1944 75.2736 17.1944ZM75.3295 17.5658C75.5641 17.5658 75.7546 17.839 75.7546 18.1753C75.7546 18.5115 75.5641 18.7832 75.3295 18.7832C75.0948 18.7832 74.9055 18.5115 74.9055 18.1753C74.9055 17.839 75.0948 17.5658 75.3295 17.5658Z" fill="black"/>
        <path fill-rule="evenodd" clip-rule="evenodd" d="M65.7579 19.133C65.4603 19.133 65.1857 18.8879 65.1857 18.8879L65.3116 18.6275C65.3116 18.6275 65.5715 18.7883 65.7579 18.7883C65.879 18.7883 66.0816 18.736 66.0841 18.5739C66.0867 18.4026 65.7436 18.3518 65.7436 18.3518C65.7436 18.3518 65.2314 18.3424 65.2314 17.7774C65.2314 17.422 65.4872 17.1953 65.8151 17.1953C66.0046 17.1953 66.3587 17.4174 66.3587 17.4174L66.2157 17.7161C66.2157 17.7161 65.9422 17.5699 65.798 17.5629C65.6761 17.5571 65.529 17.6351 65.529 17.7774C65.529 18.1639 66.3816 17.7473 66.3816 18.5279C66.3816 19.0401 66.0344 19.133 65.7579 19.133Z" fill="black"/>
        <path fill-rule="evenodd" clip-rule="evenodd" d="M66.8555 16.7207V17.2508H66.6016V17.6341H66.8555V18.5506C66.8555 18.5506 66.8331 19.1705 67.331 19.1705C67.4687 19.1705 67.7383 19.0343 67.7383 19.0343L67.623 18.6359C67.623 18.6359 67.5158 18.7583 67.3948 18.7542C67.1647 18.7465 67.171 18.5491 67.171 18.5491V17.6341H67.6454V17.2508H67.171V16.7207H66.8555Z" fill="black"/>
        <path fill-rule="evenodd" clip-rule="evenodd" d="M68.5842 17.2168C68.1159 17.2168 67.8819 17.7331 67.8838 18.1812C67.8858 18.642 68.0969 19.1605 68.6122 19.1605C68.8327 19.1605 69.1425 18.9014 69.1425 18.9014L69.0093 18.5915C69.0093 18.5915 68.7979 18.7921 68.6122 18.7921C68.2402 18.7921 68.2161 18.3054 68.2161 18.3054H69.2118C69.2118 18.3054 69.2861 17.2168 68.5842 17.2168ZM68.5417 17.5747C68.5527 17.5738 68.5645 17.5747 68.5764 17.5747C68.9268 17.5747 68.9243 18.0179 68.9243 18.0179H68.2161C68.2161 18.0179 68.1993 17.6007 68.5417 17.5747Z" fill="black"/>
        <path fill-rule="evenodd" clip-rule="evenodd" d="M71.5461 18.5865L71.6796 18.9439C71.6796 18.9439 71.468 19.1281 71.2304 19.1281C70.7387 19.1281 70.4657 18.6328 70.4657 18.1641C70.4657 17.4275 70.9002 17.2109 71.194 17.2109C71.4607 17.2109 71.6917 17.4167 71.6917 17.4167L71.542 17.7742C71.542 17.7742 71.4512 17.5846 71.1859 17.5846C70.9211 17.5846 70.7813 17.8903 70.7813 18.1803C70.7813 18.5054 70.944 18.7815 71.19 18.7815C71.383 18.7815 71.5461 18.5865 71.5461 18.5865Z" fill="black"/>
        <path fill-rule="evenodd" clip-rule="evenodd" d="M76.8169 12.4219V12.1758H76.7689L76.7137 12.3451L76.6584 12.1758H76.6104V12.4219H76.6443V12.2363L76.6961 12.3963H76.7312L76.783 12.2358V12.4219H76.8169ZM76.5128 12.4219V12.2178H76.5743V12.1762H76.4177V12.2178H76.4792V12.4219H76.5128Z" fill="#F79F1A"/>
        <path fill-rule="evenodd" clip-rule="evenodd" d="M76.8266 8.76358C76.8266 12.5724 74.5241 15.66 71.6837 15.66C68.8433 15.66 66.5408 12.5724 66.5408 8.76358C66.5408 4.95481 68.8433 1.86719 71.6837 1.86719C74.5241 1.86719 76.8266 4.95481 76.8266 8.76358Z" fill="#F79F1A"/>
        <path fill-rule="evenodd" clip-rule="evenodd" d="M70.482 8.76358C70.482 12.5724 68.1795 15.66 65.3391 15.66C62.4987 15.66 60.1962 12.5724 60.1962 8.76358C60.1962 4.95481 62.4987 1.86719 65.3391 1.86719C68.1795 1.86719 70.482 4.95481 70.482 8.76358Z" fill="#EA001B"/>
        <path fill-rule="evenodd" clip-rule="evenodd" d="M68.5114 3.33398C67.3114 4.59649 66.5411 6.55835 66.5411 8.76223C66.5411 10.9661 67.3114 12.9295 68.5114 14.192C69.7114 12.9295 70.4816 10.9661 70.4816 8.76223C70.4816 6.55835 69.7114 4.59649 68.5114 3.33398Z" fill="#FF5F01"/>
    </g>
    <defs>
        <clipPath id="clip0_0_1">
            <rect width="26" height="17" fill="white" transform="translate(0 1)"/>
        </clipPath>
        <clipPath id="clip1_0_1">
            <rect width="21" height="19" fill="white" transform="translate(30)"/>
        </clipPath>
        <clipPath id="clip2_0_1">
            <rect width="25" height="21" fill="white" transform="translate(52)"/>
        </clipPath>
    </defs>
</svg>
